<svg version="1.1" id="Layer_1" x="0" y="0" xml:space="preserve" width="482.69" height="482.459" xmlns="http://www.w3.org/2000/svg"><g id="g224" transform="translate(-258.587 -259)"><path d="M441.2 550.46c13.42-17.79 34.73-29.29 58.73-29.29s45.3 11.49 58.72 29.29c2.49 3.31 7.66 2.65 9.25-1.18 3.91-9.44 5.9-19.87 5.51-30.81-1.33-37.16-30.88-67.92-67.96-70.62-43.1-3.14-79.06 30.89-79.06 73.32 0 9.96 1.97 19.45 5.56 28.11 1.59 3.82 6.76 4.48 9.25 1.18z" id="path220" fill="#191b1f"/><path d="M633.27 362.88c-73.78-71.73-192.49-71.86-266.41-.27-48.32 46.79-66.59 112.61-54.81 173.81 1.8 9.36 9.94 16.17 19.47 16.17 12.49 0 21.76-11.4 19.4-23.66-9.19-47.82 4.69-99.23 41.64-136.18 59.2-59.18 155.53-59.18 214.71 0 59.2 59.2 59.2 155.53 0 214.71-50.88 50.9-129.24 58.04-187.83 21.42 2.37-12.95-1.46-26.81-11.46-36.82-10.01-10.01-23.86-13.85-36.82-11.48-8.03 1.44-15.72 5.28-21.92 11.48a41.503 41.503 0 0 0-9.02 13.49c-6.2 15.04-3.2 33.01 9.02 45.22 12.24 12.24 30.17 15.24 45.21 9.04 74.3 49.18 175.34 41.04 240.78-24.4 75.38-75.36 74.72-197.97-1.96-272.53z" id="path222" fill="#365cd3"/></g></svg>