<svg id="b72cc2fc-c092-4e6b-ad4a-f25a20dacaa7" data-name="Layer 1" xmlns="http://www.w3.org/2000/svg" width="695.96166" height="624.8455" viewBox="0 0 695.96166 624.8455"><path d="M932.51562,707.39911c-6.07808,21.08563-23.82531,35.8458-42.33791,48.38436q-3.87729,2.62662-7.75705,5.13238c-.01752.00766-.03557.024-.05331.03187-.12444.07994-.24912.16-.36507.24051-.53382.3441-1.06783.68843-1.59722,1.02857l.29079.13063s.28555.15184-.02686.02434c-.093-.03889-.19039-.07381-.28317-.11293-10.75465-4.33752-21.70032-8.99468-29.94214-17.12029-8.54967-8.43791-13.54607-21.67238-8.9165-32.75735a21.16418,21.16418,0,0,1,2.29164-4.11315c.37552-.53737.78-1.05168,1.20106-1.55646a22.68513,22.68513,0,0,1,38.96238,6.89338c1.36007-12.6633-9.08179-23.2707-19.13056-31.0974-10.05319-7.82275-21.47644-16.34189-23.42-28.9349-1.08536-7.00658,1.35112-13.79663,5.78949-19.24746.13741-.16562.27463-.331.41615-.49209a33.10694,33.10694,0,0,1,21.279-11.41581c15.41527-1.6021,30.38885,6.55749,41.58771,17.27548C928.5286,656.93731,939.42521,683.42488,932.51562,707.39911Z" transform="translate(-252.01917 -137.57725)" fill="#f2f2f2"/><path d="M903.54046,679.81934a56.27923,56.27923,0,0,1,6.74256,14.87115,48.86776,48.86776,0,0,1,1.68915,14.43307,62.61267,62.61267,0,0,1-8.20045,28.49443,90.11433,90.11433,0,0,1-13.594,18.16548q-3.87729,2.62662-7.75705,5.13238c-.01752.00766-.03557.024-.05331.03187-.12444.07994-.24912.16-.36507.24051-.53382.3441-1.06783.68843-1.59722,1.02857,0,0,.57634.28247.26393.155-.093-.03889-.19039-.07381-.28317-.11293a49.81321,49.81321,0,0,0-15.93955-42.89066,50.23981,50.23981,0,0,0-20.62745-11.10013c.37552-.53737.78-1.05168,1.20106-1.55646a52.08834,52.08834,0,0,1,8.598,3.25356A51.03926,51.03926,0,0,1,876.695,732.21421a52.182,52.182,0,0,1,5.68156,28.63484c.44188-.40043.8843-.80955,1.31337-1.21482,8.17238-7.61919,15.43108-16.36478,20.34353-26.45793a58.24876,58.24876,0,0,0,6.09942-27.55943c-.40092-10.41058-4.54886-20.05345-10.55453-28.44813a121.92624,121.92624,0,0,0-23.11172-23.819,138.54362,138.54362,0,0,0-28.74415-17.74607.99611.99611,0,0,1-.50129-1.27842.84725.84725,0,0,1,.41615-.49209.73758.73758,0,0,1,.64055.02722c1.26792.5837,2.527,1.17539,3.77607,1.79266a140.11649,140.11649,0,0,1,28.949,19.096C889.52412,662.01386,897.54629,670.31389,903.54046,679.81934Z" transform="translate(-252.01917 -137.57725)" fill="#fff"/><path d="M308.99186,707.19237h68.97688l34.48847-59.73574-34.48844-59.73572H308.99186l-34.48844,59.73572Z" transform="translate(-252.01917 -137.57725)" fill="#f2f2f2"/><path d="M308.99186,491.19237h68.97688l34.48847-59.73574-34.48844-59.73572H308.99186l-34.48844,59.73572Z" transform="translate(-252.01917 -137.57725)" fill="#f2f2f2"/><path d="M308.99186,277.19237h68.97688l34.48847-59.73574-34.48844-59.73572H308.99186l-34.48844,59.73572Z" transform="translate(-252.01917 -137.57725)" fill="#f2f2f2"/><path d="M386.71184,297.336H300.24871a5.01407,5.01407,0,0,1-4.3302-2.5l-43.23157-74.87988a5.01476,5.01476,0,0,1,0-5l43.23169-74.87891a5.01373,5.01373,0,0,1,4.33008-2.5H386.712a5.01355,5.01355,0,0,1,4.33007,2.5l43.23157,74.87891a5.01354,5.01354,0,0,1,0,5L391.04192,294.836A5.01326,5.01326,0,0,1,386.71184,297.336ZM300.24871,139.57725a3.00833,3.00833,0,0,0-2.59814,1.5L254.419,215.95616a3.00865,3.00865,0,0,0,.00012,3L297.65057,293.836a3.00833,3.00833,0,0,0,2.59814,1.5h86.46313a3.00785,3.00785,0,0,0,2.598-1.5l43.23181-74.87988a3.00836,3.00836,0,0,0,0-3l-43.23181-74.87891a3.00779,3.00779,0,0,0-2.5979-1.5Z" transform="translate(-252.01917 -137.57725)" fill="#ccc"/><path d="M386.71184,512.37608H300.24871a5.01407,5.01407,0,0,1-4.3302-2.5L252.68694,434.9962a5.01476,5.01476,0,0,1,0-5l43.23169-74.87891a5.01373,5.01373,0,0,1,4.33008-2.5H386.712a5.01355,5.01355,0,0,1,4.33007,2.5l43.23157,74.87891a5.01354,5.01354,0,0,1,0,5l-43.23169,74.87988A5.01326,5.01326,0,0,1,386.71184,512.37608ZM300.24871,354.61729a3.00833,3.00833,0,0,0-2.59814,1.5L254.419,430.9962a3.00865,3.00865,0,0,0,.00012,3l43.23145,74.87988a3.00833,3.00833,0,0,0,2.59814,1.5h86.46313a3.00785,3.00785,0,0,0,2.598-1.5l43.23181-74.87988a3.00836,3.00836,0,0,0,0-3l-43.23181-74.87891a3.00779,3.00779,0,0,0-2.5979-1.5Z" transform="translate(-252.01917 -137.57725)" fill="#ccc"/><path d="M386.71184,727.41612H300.24871a5.01407,5.01407,0,0,1-4.3302-2.5l-43.23157-74.87988a5.01325,5.01325,0,0,1,.00012-5l43.23157-74.87891a5.01373,5.01373,0,0,1,4.33008-2.5H386.712a5.01355,5.01355,0,0,1,4.33007,2.5l43.23157,74.87891a5.01354,5.01354,0,0,1,0,5l-43.23169,74.87988A5.01326,5.01326,0,0,1,386.71184,727.41612ZM300.24871,569.65733a3.00833,3.00833,0,0,0-2.59814,1.5L254.419,646.03624a3.00807,3.00807,0,0,0,.00012,3l43.23145,74.87988a3.00833,3.00833,0,0,0,2.59814,1.5h86.46313a3.00785,3.00785,0,0,0,2.598-1.5l43.23181-74.87988a3.00836,3.00836,0,0,0,0-3l-43.23181-74.87891a3.00779,3.00779,0,0,0-2.5979-1.5Z" transform="translate(-252.01917 -137.57725)" fill="#ccc"/><path d="M343.4803,398.47994A32.9767,32.9767,0,1,0,376.457,431.45668,32.97669,32.97669,0,0,0,343.4803,398.47994Zm0,9.893a9.893,9.893,0,1,1-9.893,9.893A9.893,9.893,0,0,1,343.4803,408.373Zm0,47.626a24.02325,24.02325,0,0,1-19.786-10.55889c.15858-6.59535,13.19069-10.22594,19.786-10.22594s19.62745,3.63059,19.786,10.22594A24.06327,24.06327,0,0,1,343.4803,455.99891Z" transform="translate(-252.01917 -137.57725)" fill="#58a6ff"/><path d="M343.41678,194.4848a18.00482,18.00482,0,1,0-26.06028,24.85067q.29517.30953.6048.60481L344.029,246.008l25.45546-25.45548a18.43787,18.43787,0,0,0-26.06773-26.06772Z" transform="translate(-252.01917 -137.57725)" fill="#58a6ff"/><path d="M364.71565,627.47912c0,11.728-21.23533,37.47414-21.23533,37.47414S322.245,639.2071,322.245,627.47912a21.23534,21.23534,0,1,1,42.47067-.03474Z" transform="translate(-252.01917 -137.57725)" fill="#58a6ff"/><circle cx="91.46114" cy="489.90188" r="8.34246" fill="#fff"/><circle cx="90.70273" cy="542.76716" r="8.34247" fill="#58a6ff"/><path d="M749.026,369.02052c-7.097-3.30155-15.81045-4.38389-23.03182-1.316s-12.14453,10.93153-9.80947,17.89083c1.05868,3.15524,3.46989,6.25835,2.5305,9.445-.72306,2.45284-3.24546,4.07226-5.72259,5.22372s-5.18693,2.11951-6.97841,4.06155-2.16509,5.28532.07285,6.79139c.73732.49618,1.65886.73149,2.37376,1.25436a3.772,3.772,0,0,1,1.16432,4.2222,8.89321,8.89321,0,0,1-2.85084,3.75065c-2.54053,2.19094-5.89807,4.6985-5.10926,7.80873a5.47836,5.47836,0,0,0,3.697,3.45789,18.36753,18.36753,0,0,0,5.42688.71626l74.96621,2.36156a28.4225,28.4225,0,0,0,7.40167-.41344,8.7618,8.7618,0,0,0,5.81293-3.905c1.4356-2.65728.49311-5.93057-1.27979-8.41186s-4.282-4.43863-6.35525-6.71709-3.76948-5.12271-3.404-8.06748c.29256-2.35732,1.84718-4.3947,2.9632-6.5366s1.76428-4.81847.31887-6.78893c-2.03679-2.77665-6.92687-2.52551-9.24285-5.11284-1.74777-1.95255-1.41026-4.76345-1.584-7.28134-.418-6.05656-4.61118-11.77645-10.58027-14.43257a20.83058,20.83058,0,0,0-18.95323,1.2908Z" transform="translate(-252.01917 -137.57725)" fill="#2f2e41"/><polygon points="449.634 611.598 437.893 608.07 445.912 561.103 463.241 566.31 449.634 611.598" fill="#a0616a"/><path d="M701.22859,761.45588l-37.85867-11.37465.14385-.47886a15.38607,15.38607,0,0,1,19.16265-10.30886l.00094.00028L705.8,746.2411Z" transform="translate(-252.01917 -137.57725)" fill="#2f2e41"/><polygon points="560.431 611.995 548.171 611.994 542.339 564.706 560.433 564.707 560.431 611.995" fill="#a0616a"/><path d="M815.57651,761.45588l-39.53052-.00146v-.5a15.38605,15.38605,0,0,1,15.38648-15.38623h.001l24.1438.001Z" transform="translate(-252.01917 -137.57725)" fill="#2f2e41"/><path d="M795.43163,713.80579a4.50051,4.50051,0,0,1-4.44141-3.78809L772.78685,596.463a3.50021,3.50021,0,0,0-6.68823-.78907L718.93724,709.21009a4.51622,4.51622,0,0,1-5.57861,2.54394l-17.03418-5.67871a4.48513,4.48513,0,0,1-2.96631-5.26074l38.64893-171.02149a4.52539,4.52539,0,0,1,3.37182-3.3916l51.83252-12.03222a4.56226,4.56226,0,0,1,3.70752.76953c34.13037,24.79883,31.24707,105.82129,24.88623,193.79785a4.50191,4.50191,0,0,1-4.29443,4.17383l-15.88184.6914C795.563,713.80384,795.49706,713.80579,795.43163,713.80579Z" transform="translate(-252.01917 -137.57725)" fill="#2f2e41"/><circle cx="499.78064" cy="271.96948" r="24.56103" fill="#a0616a"/><path d="M752.86009,536.84388a39.89876,39.89876,0,0,1-17.02368-3.93457l-.18261-.085-.07251-.18847L713.55175,475.5597l-.41895-9.917a23.7725,23.7725,0,0,1,25.09033-24.74023l23.3877,1.31738a23.78705,23.78705,0,0,1,22.43676,23.61035c.60743,1.167,4.92139,10.292-3.533,18.86524-.31592,1.95215-3.2732,22.24707,7.88671,33.40722l.31373.31348-.27417.34863C788.26317,518.99134,773.93065,536.841,752.86009,536.84388Z" transform="translate(-252.01917 -137.57725)" fill="#ccc"/><path d="M785.70207,541.14957a10.05576,10.05576,0,0,0,5.277-14.48823L814.338,499.618l-18.41436-2.3969-19.35886,26.04829a10.11027,10.11027,0,0,0,9.13732,17.88018Z" transform="translate(-252.01917 -137.57725)" fill="#a0616a"/><path d="M742.89074,535.45244a10.05579,10.05579,0,0,1-10.4389-11.34835L700.495,508.11223l16.07975-9.28845,27.88156,16.61016a10.11027,10.11027,0,0,1-1.56557,20.0185Z" transform="translate(-252.01917 -137.57725)" fill="#a0616a"/><path d="M800.30663,520.27649a4.48915,4.48915,0,0,1-2.46875-.74023l-11.553-7.57715a4.49135,4.49135,0,0,1-1.39893-6.06445l8.36377-14.05176a6.27236,6.27236,0,0,0-2.824-8.93164L766.39794,472.1388a14.32393,14.32393,0,0,1-8.11206-15.915h0a14.2409,14.2409,0,0,1,20.43237-9.75391l36.45215,18.67871a19.17714,19.17714,0,0,1,6.80493,28.28907l-18.02026,24.96972A4.4889,4.4889,0,0,1,800.30663,520.27649Z" transform="translate(-252.01917 -137.57725)" fill="#ccc"/><path d="M725.2932,524.71106a4.48983,4.48983,0,0,1-1.91943-.43164l-27.86231-13.11133a19.17623,19.17623,0,0,1-7.7539-28.043l22.83691-34.001a14.2407,14.2407,0,0,1,22.59961-1.36914,14.32359,14.32359,0,0,1,.61475,17.85254L718.00951,486.674a6.27286,6.27286,0,0,0,1.85766,9.18164l14.125,8.23926a4.49041,4.49041,0,0,1,1.7146,5.98242L729.272,522.30384A4.49087,4.49087,0,0,1,725.2932,524.71106Z" transform="translate(-252.01917 -137.57725)" fill="#ccc"/><path d="M726.67312,406.05486c7.75643-.62285,14.19624-8.37141,13.38973-16.11089a13.00908,13.00908,0,0,0,11.14122,13.24573c3.55787.392,7.4584-.68443,10.55524,1.11048,3.43,1.988,4.52757,6.81578,8.10091,8.53283,3.45255,1.659,7.8377-.60362,9.54345-4.03331s1.28713-7.5502.15669-11.21a31.65248,31.65248,0,0,0-52.68951-12.97513c-3.26142,3.28049-5.851,7.46146-6.271,12.06821s1.717,9.60535,5.85416,11.67485Z" transform="translate(-252.01917 -137.57725)" fill="#2f2e41"/><path d="M946.98083,762.29649h-381a1,1,0,0,1,0-2h381a1,1,0,0,1,0,2Z" transform="translate(-252.01917 -137.57725)" fill="#3f3d56"/></svg>